#include "pitches.h"
/* Tetris B theme. 4/4 time, in E major. */
  const float song[] PROGMEM = {
  NOTE_E4, 8, NOTE_E4, 16, NOTE_E4, 16, NOTE_B3, 8, NOTE_B3, 8, NOTE_E4, 8, NOTE_E4, 16, NOTE_E4, 16, NOTE_B3, 8, NOTE_B3, 8, 
  NOTE_E4, 8, NOTE_E4, 16, NOTE_E4, 16, NOTE_B3, 8, NOTE_B3, 8, NOTE_E4, 8, NOTE_E4, 16, NOTE_E4, 16, NOTE_B3, 8, NOTE_B3, 8, 
    
  NOTE_E4, 8, NOTE_B4, 8, NOTE_E5, 8, NOTE_DS5, 8, NOTE_E5, 8, NOTE_B4, 16, NOTE_B4, 16, NOTE_C5, 8, NOTE_A4, 8,
  NOTE_B4, 8, NOTE_FS4, 16, NOTE_G4, 16, NOTE_A4, 8, NOTE_GS4, 8, NOTE_GS4, 8, NOTE_FS4, 16, NOTE_FS4, 16, NOTE_FS4, 8, NOTE_E4, 8,
  NOTE_FS4, 8, NOTE_B3, 8, NOTE_C4, 8, NOTE_DS4, 8, NOTE_E4, 8, NOTE_B4, 8, NOTE_C4, 8, NOTE_DS4, 8,

  NOTE_E4, 8, NOTE_B4, 8, NOTE_E5, 8, NOTE_DS5, 8, NOTE_E5, 8, NOTE_B4, 16, NOTE_B4, 16, NOTE_C5, 8, NOTE_A4, 8,
  NOTE_B4, 8, NOTE_FS4, 16, NOTE_G4, 16, NOTE_A4, 8, NOTE_GS4, 8, NOTE_GS4, 8, NOTE_FS4, 16, NOTE_FS4, 16, NOTE_FS4, 8, NOTE_E4, 8,
  NOTE_FS4, 8, NOTE_B3, 8, NOTE_C4, 8, NOTE_DS4, 8, NOTE_E4, 8, NOTE_B4, 8, NOTE_C4, 8, NOTE_DS4, 8,

  NOTE_E4, 8, NOTE_E3, 16, NOTE_E3, 16, NOTE_C3, 8, NOTE_A2, 8, NOTE_E3, 8, NOTE_E3, 16, NOTE_E3, 16, NOTE_FS4, 8, NOTE_DS4, 8,
  NOTE_E4, 8, NOTE_A3, 16, NOTE_A3, 16, NOTE_B2, 8, NOTE_A2, 8, NOTE_E3, 8, NOTE_E3, 16, NOTE_E3, 16, NOTE_FS4, 8, NOTE_D2, 8,

  NOTE_G4, 8, NOTE_G4, 16, NOTE_G4, 16, NOTE_A4, 8, NOTE_FS4, 8, NOTE_G4, 8, NOTE_G4, 16, NOTE_G4, 16, NOTE_A4, 8, NOTE_FS4, 8,
  NOTE_G4, 8, NOTE_F3, 16, NOTE_D3, 16, NOTE_B3, 8, NOTE_D3, 8, NOTE_G3, 8, NOTE_F3, 16, NOTE_D3, 16, NOTE_A4, 8, NOTE_D3, 8,
  
  NOTE_B4, 8, NOTE_B4, 16, NOTE_B4, 16, NOTE_C5, 8, NOTE_A4, 8, NOTE_B4, 8, NOTE_B4, 16, NOTE_B4, 16, NOTE_C5, 8, NOTE_A4, 8,
  NOTE_B4, 8, NOTE_G3, 16, NOTE_D3, 16, NOTE_D2, 8, NOTE_D3, 8, NOTE_G2, 8, NOTE_G3, 16, NOTE_D3, 16, NOTE_CS5, 8, NOTE_A3, 8,

  NOTE_D5, 8, NOTE_D5, 16, NOTE_D5, 16, NOTE_D5, 8, NOTE_D5, 8, NOTE_E5, 8, NOTE_D5, 8, NOTE_D5, 8, NOTE_CS5, 8,
  NOTE_D5, 8, NOTE_D5, 16, NOTE_D5, 16, NOTE_D5, 8, NOTE_D5, 8, NOTE_E5, 8, NOTE_D5, 8, NOTE_D5, 8, NOTE_CS5, 8,

  NOTE_D5, 8, NOTE_D5, 16, NOTE_D5, 16, NOTE_D5, 8, NOTE_D5, 8, NOTE_CS5, 8, NOTE_CS5, 16, NOTE_CS5, 16, NOTE_CS5, 8, NOTE_CS5, 8,
  NOTE_C5, 8, NOTE_C5, 16, NOTE_C5, 16, NOTE_C5, 8, NOTE_A4, 8, NOTE_E4, 8, NOTE_G4, 8, NOTE_A4, 8, NOTE_D4, 8,

  NOTE_A4, 8, NOTE_G4, 16, NOTE_FS4, 16, NOTE_D4, 8, NOTE_G4, 8, NOTE_E3, 8, NOTE_D4, 16, NOTE_E4, 16, NOTE_D4, 8, NOTE_B3, 8,
  NOTE_A4, 8, NOTE_G4, 16, NOTE_FS4, 16, NOTE_D4, 8, NOTE_G4, 8, NOTE_E3, 8, NOTE_D4, 16, NOTE_E4, 16, NOTE_D4, 8, NOTE_B3, 8,

  NOTE_D4, 8, NOTE_D3, 16, NOTE_D2, 16, NOTE_D2, 8, NOTE_D3, 8, NOTE_D2, 8, NOTE_D3, 16, NOTE_D2, 16, NOTE_D2, 8, NOTE_D3, 8,
  NOTE_D2, 8, NOTE_D3, 16, NOTE_D3, 16, NOTE_D2, 8, NOTE_D3, 8, NOTE_D2, 8, NOTE_D3, 16, NOTE_D2, 16, NOTE_DS4, 8, REST, 8  
  };
  #define NOTES 210
  #define BPM 70.0
