#include "pitches.h"
/* Tetris C theme. A major, 3/4 time. */
const float song[] PROGMEM = { // six notes per measure for the first part, which is repeated once
  NOTE_A4, 8, NOTE_CS5, 8, NOTE_FS5, 8, NOTE_CS5, 8, NOTE_GS4, 8, NOTE_CS5, 8,
  NOTE_A4, 8, NOTE_CS5, 8, NOTE_FS4, 8, NOTE_CS5, 8, NOTE_F4, 8, NOTE_CS5, 8,
  NOTE_A4, 8, NOTE_CS5, 8, NOTE_FS5, 8, NOTE_CS5, 8, NOTE_GS4, 8, NOTE_CS5, 8,
  NOTE_A4, 8, NOTE_CS5, 8, NOTE_FS4, 8, NOTE_CS5, 8, NOTE_F4, 8, NOTE_CS5, 8,
  NOTE_A4, 8, NOTE_CS5, 8, NOTE_A4, 8, NOTE_FS4, 8, NOTE_D5, 8, NOTE_B5, 8,
  NOTE_GS4, 8, NOTE_B4, 8, NOTE_GS4, 8, NOTE_E4, 8, NOTE_CS5, 8, NOTE_A4, 8,
  NOTE_FS4, 8, NOTE_CS5, 8, NOTE_B4, 8, NOTE_A4, 8, NOTE_GS4, 8, NOTE_FS4, 8,
  NOTE_F4, 8, NOTE_D4, 8, NOTE_F4, 8, NOTE_GS4, 8, NOTE_CS5, 8, NOTE_B4, 8,
  // repeat of the above
  NOTE_A4, 8, NOTE_CS5, 8, NOTE_FS5, 8, NOTE_CS5, 8, NOTE_GS4, 8, NOTE_CS5, 8,
  NOTE_A4, 8, NOTE_CS5, 8, NOTE_FS4, 8, NOTE_CS5, 8, NOTE_F4, 8, NOTE_CS5, 8,
  NOTE_A4, 8, NOTE_CS5, 8, NOTE_FS5, 8, NOTE_CS5, 8, NOTE_GS4, 8, NOTE_CS5, 8,
  NOTE_A4, 8, NOTE_CS5, 8, NOTE_FS4, 8, NOTE_CS5, 8, NOTE_F4, 8, NOTE_CS5, 8,
  NOTE_A4, 8, NOTE_CS5, 8, NOTE_A4, 8, NOTE_FS4, 8, NOTE_D5, 8, NOTE_B5, 8,
  NOTE_GS4, 8, NOTE_B4, 8, NOTE_GS4, 8, NOTE_E4, 8, NOTE_CS5, 8, NOTE_A4, 8,
  NOTE_FS4, 8, NOTE_CS5, 8, NOTE_B4, 8, NOTE_A4, 8, NOTE_GS4, 8, NOTE_FS4, 8,
  NOTE_F4, 8, NOTE_D4, 8, NOTE_F4, 8, NOTE_GS4, 8, NOTE_CS5, 8, NOTE_B4, 8,
  // second part...
  NOTE_GS4, 8, NOTE_B4, 8, NOTE_GS4, 8, NOTE_E4, 8, NOTE_E5, 8, NOTE_B4, 8,
  NOTE_CS5, 8, NOTE_E5, 8, NOTE_CS5, 8, NOTE_A4, 8, NOTE_E4, 8, NOTE_GS5, 8,
  NOTE_A4, 3,
  NOTE_E5, 8, NOTE_DS5, 8, NOTE_CS5, 8, NOTE_B4, 8, NOTE_A4, 8, NOTE_GS5, 8,
  NOTE_A4, 8, NOTE_B4, 8, NOTE_CS5, 8, NOTE_A4, 8, NOTE_B4, 8, NOTE_D5, 8,
  NOTE_CS5, 8, NOTE_D5, 8, NOTE_E5, 4, NOTE_GS4, 4,
  NOTE_A4, 8, NOTE_B4, 8, NOTE_CS5, 4, NOTE_B4, 4,
  NOTE_CS5, 4, NOTE_FS5, 4, NOTE_DS5, 4,
  NOTE_FS5, 8, NOTE_GS5, 8, NOTE_A5, 4, NOTE_GS5, 4,
  NOTE_FS5, 8, NOTE_E5, 8, NOTE_DS5, 8, NOTE_CS5, 8, NOTE_DS5, 8, NOTE_C5, 8,
  NOTE_C5, 4, REST, 2, // maybe want to put in the bassline here?
  NOTE_E5, 2.666, NOTE_FS5, 16, NOTE_G5, 16, NOTE_FS5, 4,
  NOTE_E5, 8, NOTE_D5, 8, NOTE_E5, 8, NOTE_CS5, 8, NOTE_D5, 8, NOTE_B4, 8,
  NOTE_FS5, 2.666, NOTE_GS5, 16, NOTE_A5, 16, NOTE_GS5, 4,
  NOTE_FS5, 8, NOTE_F5, 8, NOTE_FS5, 8, NOTE_DS5, NOTE_F5, 8, NOTE_CS5, 8,
  NOTE_GS5, 8, NOTE_F5, 8, NOTE_CS5, 8, NOTE_F5, 8, NOTE_GS5, 8, NOTE_B5, 8,
  NOTE_D6, 8, NOTE_F5, 8, NOTE_CS6, 8, NOTE_F5, 8, NOTE_B5, 8, NOTE_F5, 8,
  NOTE_A5, 4, NOTE_B5, 8, NOTE_A5, 8, NOTE_GS5, 8, NOTE_A5, 8,
  NOTE_FS5, 16, NOTE_GS5, 16, NOTE_FS5, 16, NOTE_GS5, 16, NOTE_FS5, 16, NOTE_GS5, 16, NOTE_FS5, 16, NOTE_GS5, 16, REST, 4
};
#define NOTES 161 // should adjust this if it's incorrect
#define BPM 40.0
